<svg xmlns="http://www.w3.org/2000/svg" width="82" height="24" viewBox="0 0 82 24" role="img" aria-label="Irbis">
  <svg x="0" y="0" width="24" height="24" viewBox="249 188 568 645" aria-hidden="true" color="#0f172b">
    <path fill="currentColor" d="M279.9 189.8c-29.8 9.9-39.1 48.8-25.2 105.2l3.6 14.5-1.7 12.5c-12.4 93 2.1 177.2 45.9 266.5 25.2 51.5 27.8 67.1 16.5 99-7.7 21.6-9.7 23.9-23 26.6-24.1 4.9-37.2 13.8-41.4 28.3-9.2 31.4 5.3 40.3 57.4 35.4l13.4-1.3 1.8-7.8c5.2-22.8 19.4-33.5 50.8-38.2l4.5-.7 5.8-12c10.1-20.6 18.6-45 17.4-50-.3-1.3-2.6-7.3-5.1-13.5-27.5-66 .2-135.5 66.7-167.4 2.6-1.3 4.7-2.6 4.7-3 0-.3-2.1-1.6-4.7-2.8-2.7-1.1-10.9-5.5-18.3-9.6-30.6-17.1-38.6-20.2-72.8-28.9l-18.3-4.7-4.7 2.6c-2.7 1.4-9.5 6.2-15.3 10.5-13.3 10.2-15.7 9-31.7-15-17.5-26.3-19.5-34.4-11.1-44.1 3.5-4.1 7-8.2 7.7-9.1 1.2-1.5.8-2.9-2.3-9.8-13.9-30.8-12.6-45.8 5.2-58 15.1-10.5 15.4-12.4 4.9-34.1-10.5-21.5-12.8-28.9-13.3-41.9-.9-23.8 5-24.8 40.7-6.8 14.9 7.5 17.9 8.7 20 7.9 1.4-.5 6.1-2.4 10.5-4.1 46-17.7 97.6-14.1 138.1 9.6l4.1 2.4 1.8-2.6c1.6-2.6 1.6-3.1-.5-11.9-2.8-11.7-2.6-12.5 3.5-14.8 18.9-7.1 26.5 12.9 16.1 42.1l-1.5 4.3 6.1 6.7c3.4 3.7 6.5 6.8 6.8 7 2 .9 9.6-29.8 10.6-42.8 3.4-45-16.5-56.6-67-38.8l-20 7.1-8.6-1.7c-28-5.3-62.6-4.4-91.8 2.3l-12.2 2.8-6.7-2.9c-36.8-15.9-53.5-19.6-67.4-15"/><path fill="currentColor" d="M460 250c-11.6 12.4 6.4 31.4 18.3 19.2 4.7-4.8 4.6-5.5-.7-9.1-2.4-1.7-5.4-4.8-6.7-6.8-4.2-7.1-6.6-7.9-10.9-3.3"/><path fill="currentColor" d="M409.7 261.8c-5.9 9.8-6.4 8.5 5.1 13.8 5.3 2.5 10.5 5.3 11.4 6.1 2 1.8 4.8 1.1 4.8-1.3 0-.9 1.2-4.3 2.7-7.6l2.7-6-3-2.2c-1.6-1.1-4-3.1-5.2-4.4-8.5-8.3-12.7-7.9-18.5 1.6"/><path fill="currentColor" d="M531.2 324.6c-13.4 3.6-19.2 15.9-14.7 31.2 1.4 4.5 1.9 5.2 3.8 4.8 1.2-.3 4.2-.7 6.7-1.1 11.2-1.5 14.2-6.3 14.8-23.7l.5-12.8-2.9.1c-1.6 0-5.3.7-8.2 1.5"/><path fill="currentColor" d="M416.5 326c-5.6 1.2-17.9 6.2-28.3 11.4l-8.7 4.5h9.2l9.3.1 1.5 3.5c6.5 15.7 18.8 20.8 44.5 18.4 14.7-1.3 13.6-.8 12.1-6.1-8-27.1-19.4-36.2-39.6-31.8"/><path fill="currentColor" d="M322.8 350.7c-8.8 9.2-5.3 15.8 8.6 16.4l7.9.4 2.5-7.6c3.2-9.8 2.8-10.9-4-10.9-2.9 0-6.9-.3-8.8-.6-2.9-.5-3.9-.1-6.2 2.3"/><path fill="currentColor" d="M358.6 385.3c-9.1 5.1-9.2 5.6-1.5 13.2l6.5 6.6 11.1-6.7 11.1-6.7-10-4.8c-11.8-5.8-9.9-5.6-17.2-1.6"/><path fill="currentColor" d="M475 396.2c0 7.6 1.8 9.9 11.2 14.6 16 7.9 16.3 14.9 1 23-15 7.8-23.4 8.8-38.6 4.2-12.2-3.7-12.3-3.6-3.9 3.5 12 10.3 19 11.2 39 5.1l12.2-3.8 5.5 1.6c3 .9 6.2 1.9 7 2.2.7.3 3-.9 5-2.7l3.7-3.2-3-3.1c-4.2-4.3-5-7.2-4-13.5s.1-5.2 9.7-11.5c8.8-5.8 10.9-9.6 9.5-17l-.8-4-26.8-.1-26.7-.1z"/><path fill="currentColor" d="M569.2 418c-10.3 25.2-10.9 21.8 7.1 39l9.9 9.4 6.6-6.9c3.7-3.9 9-9.6 11.8-12.8 6-6.6 6.6-6.7 18.9-3.8 20.9 5.1 44.8 16.8 62.7 30.9l5.8 4.5-2.9 3.6c-2.8 3.5-8.1 14.2-8.1 16.3 0 .5 2.2 3.3 4.8 6.1 2.6 2.9 5.5 6.4 6.5 7.8 1.8 3 16.3 12.2 17.8 11.4.5-.4 2.4-3.8 4.2-7.8 5.2-11.1 4.8-11.1 15.8.6 23.5 25.2 37.4 44.6 44.9 62.7 24.1 58.4-17.6 115.9-100.4 138.5-28.4 7.7-41.3 8.9-101.6 9-61.7.1-70.2 1-90.4 9.6-31.2 13.3-55 51.9-45.5 74 15.5 36 219.5 26.8 302.4-13.6 140.7-68.4 76.4-291.2-109.7-379.9-17.6-8.4-45.5-18.4-51.9-18.6-.3 0-4.2 9-8.7 20"/><path fill="currentColor" d="M320 406.2c-6.1 3.1-6 4.4 1.1 12.1l6.1 6.7 4.6-2.5c2.6-1.4 5.8-3.5 7.2-4.5l2.5-2-6.2-6c-7-6.7-8.6-7.1-15.3-3.8"/><path fill="currentColor" d="M529 466.8c-5.8 1.9-6.9 5.6-3.9 13.6 3.5 9.6 7.4 11.1 14.3 5.4 7.1-5.8-1.7-21.9-10.4-19"/><path fill="currentColor" d="M636.5 478.8c-.6.5-4.5 2.2-8.8 3.8-8.8 3.3-9.7 4.6-6.9 10.1 1.1 2.1 2.5 6.5 3.2 9.8 1.8 8.7 8.7 18.5 13.1 18.5 12.4 0 23.9-7.9 20.7-14.3-1.4-2.9-2.9-7.4-3.3-10.1-1.2-8.5-14.1-21.2-18-17.8"/><path fill="currentColor" d="M565.3 497.3c-9 6.1-1.8 24.7 9.6 24.7 9.2 0 18.5-12.4 13.2-17.6-13.5-13.4-13.6-13.4-22.8-7.1"/><path fill="currentColor" d="M510.2 525.3c-7.3 7.3-8.3 11.3-3.4 13.7 1.5.8 5.2 2.9 8.3 4.7 7.5 4.4 7.4 4.4 14.7-3.6 8.5-9.5 8.4-10.6-1.8-16.5-10.1-5.9-10.3-5.8-17.8 1.7"/><path fill="currentColor" d="M623.4 546.5c-62.6 11.3-93.3 65-81.1 142l2.2 14 29-.4c16-.2 31.8-.6 35.1-1l6.2-.6-6.3-7.8c-39.6-49.4-31.3-111.3 19.1-141.3 12-7.2 11.6-7.8-4.2-4.9"/><path fill="currentColor" d="M705.3 547.7c-.3 1-2.2 5.6-4.1 10.2l-3.6 8.5 3.4 2.5c1.8 1.4 5.2 4.2 7.4 6.2 10.2 8.8 19.3 10.6 23.5 4.6 1.6-2.3 4.3-5.5 6-7.1 4.3-4.1 3.9-5.9-2.2-10.5-2.9-2.2-6.2-5.3-7.4-7-1.7-2.2-4.4-3.6-11.5-6-10.9-3.6-10.7-3.6-11.5-1.4"/><path fill="currentColor" d="M751 601c-1.1 1.1-2 2.7-2 3.5 0 .9-.8 3.2-1.9 5.3-2.3 4.6-2 5.6 3.7 11.4 5.5 5.8 5.2 5.7 10.9 1.1l4.5-3.7-.4-6.4c-.6-9.8-9.5-16.5-14.8-11.2"/>
  </svg>
  <svg x="28" y="4" width="54" height="16" viewBox="0 0 1038 313" aria-hidden="true" fill="#0f172b">
    <path d="M60.048 310.176H4.22897e-05V2.59198H60.048V310.176ZM364.473 310.176H294.921L234.873 196.128H191.673V310.176H131.625V68.688C131.625 45.648 136.953 28.944 147.609 18.576C158.265 7.91998 176.121 2.59198 201.177 2.59198H252.153C282.681 2.59198 306.873 11.952 324.729 30.672C342.873 49.104 351.945 72.576 351.945 101.088C351.945 121.824 346.473 139.824 335.529 155.088C324.873 170.064 311.625 180.432 295.785 186.192L364.473 310.176ZM248.265 146.016C260.937 146.016 271.305 141.696 279.369 133.056C287.721 124.128 291.897 113.184 291.897 100.224C291.897 86.976 287.865 76.32 279.801 68.256C272.025 60.192 261.513 56.16 248.265 56.16H218.457C200.601 56.16 191.673 65.232 191.673 83.376V146.016H248.265ZM637.193 221.616C637.193 250.128 629.417 272.016 613.865 287.28C598.601 302.544 577.145 310.176 549.497 310.176H508.025C474.041 310.176 449.849 304.272 435.449 292.464C421.337 280.656 414.281 260.208 414.281 231.12V2.59198H544.313C573.689 2.59198 595.721 9.93598 610.409 24.624C625.385 39.312 632.873 60.048 632.873 86.832C632.873 102.384 628.841 115.632 620.777 126.576C613.001 137.52 604.361 145.296 594.857 149.904C623.081 163.152 637.193 187.056 637.193 221.616ZM539.561 122.688C561.737 122.688 572.825 111.6 572.825 89.424C572.825 67.248 561.737 56.16 539.561 56.16H474.329V122.688H539.561ZM577.145 218.592C577.145 204.768 574.697 194.4 569.801 187.488C564.905 180.288 556.121 176.688 543.449 176.688H474.329V225.072C474.329 236.88 477.209 245.088 482.969 249.696C489.017 254.304 498.809 256.608 512.345 256.608H543.449C565.913 256.608 577.145 243.936 577.145 218.592ZM758.673 310.176H698.625V2.59198H758.673V310.176ZM1037.61 219.456C1037.61 248.544 1026.95 271.44 1005.64 288.144C984.33 304.56 957.114 312.768 923.994 312.768C897.786 312.768 872.442 305.568 847.962 291.168C835.866 283.68 825.93 273.168 818.154 259.632C810.378 245.808 806.49 230.112 806.49 212.544L860.922 209.952C860.922 225.504 867.546 237.6 880.794 246.24C894.042 254.88 908.73 259.2 924.858 259.2C960.858 259.2 978.858 246.528 978.858 221.184C978.858 200.448 966.618 188.208 942.138 184.464L892.026 179.28C866.97 175.536 847.098 166.608 832.41 152.496C817.722 138.384 810.378 118.08 810.378 91.584C810.378 65.088 820.89 43.2 841.914 25.92C862.938 8.63996 889.434 -3.72162e-05 921.402 -3.72162e-05C953.658 -3.72162e-05 979.578 8.20797 999.162 24.624C1018.75 40.752 1028.54 61.632 1028.54 87.264L974.97 89.856C970.074 64.8 953.226 52.272 924.426 52.272C906.858 52.272 893.034 56.016 882.954 63.504C873.162 70.992 868.266 79.92 868.266 90.288C868.266 100.368 871.866 108.432 879.066 114.48C886.266 120.24 895.194 123.84 905.85 125.28L955.098 130.464C1010.11 137.952 1037.61 167.616 1037.61 219.456Z" />
  </svg>
</svg>
