<svg xmlns="http://www.w3.org/2000/svg" version="1.0" viewBox="245 185 580 655"><style>path{stroke:#24478a;fill:#24478a}@media (prefers-color-scheme: dark){path{stroke:#fafafa;fill:#fafafa}}</style><path d="M279.9 189.8c-29.8 9.9-39.1 48.8-25.2 105.2l3.6 14.5-1.7 12.5c-12.4 93 2.1 177.2 45.9 266.5 25.2 51.5 27.8 67.1 16.5 99-7.7 21.6-9.7 23.9-23 26.6-24.1 4.9-37.2 13.8-41.4 28.3-9.2 31.4 5.3 40.3 57.4 35.4l13.4-1.3 1.8-7.8c5.2-22.8 19.4-33.5 50.8-38.2l4.5-.7 5.8-12c10.1-20.6 18.6-45 17.4-50-.3-1.3-2.6-7.3-5.1-13.5-27.5-66 .2-135.5 66.7-167.4 2.6-1.3 4.7-2.6 4.7-3 0-.3-2.1-1.6-4.7-2.8-2.7-1.1-10.9-5.5-18.3-9.6-30.6-17.1-38.6-20.2-72.8-28.9l-18.3-4.7-4.7 2.6c-2.7 1.4-9.5 6.2-15.3 10.5-13.3 10.2-15.7 9-31.7-15-17.5-26.3-19.5-34.4-11.1-44.1 3.5-4.1 7-8.2 7.7-9.1 1.2-1.5.8-2.9-2.3-9.8-13.9-30.8-12.6-45.8 5.2-58 15.1-10.5 15.4-12.4 4.9-34.1-10.5-21.5-12.8-28.9-13.3-41.9-.9-23.8 5-24.8 40.7-6.8 14.9 7.5 17.9 8.7 20 7.9 1.4-.5 6.1-2.4 10.5-4.1 46-17.7 97.6-14.1 138.1 9.6l4.1 2.4 1.8-2.6c1.6-2.6 1.6-3.1-.5-11.9-2.8-11.7-2.6-12.5 3.5-14.8 18.9-7.1 26.5 12.9 16.1 42.1l-1.5 4.3 6.1 6.7c3.4 3.7 6.5 6.8 6.8 7 2 .9 9.6-29.8 10.6-42.8 3.4-45-16.5-56.6-67-38.8l-20 7.1-8.6-1.7c-28-5.3-62.6-4.4-91.8 2.3l-12.2 2.8-6.7-2.9c-36.8-15.9-53.5-19.6-67.4-15"/><path d="M460 250c-11.6 12.4 6.4 31.4 18.3 19.2 4.7-4.8 4.6-5.5-.7-9.1-2.4-1.7-5.4-4.8-6.7-6.8-4.2-7.1-6.6-7.9-10.9-3.3m-50.3 11.8c-5.9 9.8-6.4 8.5 5.1 13.8 5.3 2.5 10.5 5.3 11.4 6.1 2 1.8 4.8 1.1 4.8-1.3 0-.9 1.2-4.3 2.7-7.6l2.7-6-3-2.2c-1.6-1.1-4-3.1-5.2-4.4-8.5-8.3-12.7-7.9-18.5 1.6m121.5 62.8c-13.4 3.6-19.2 15.9-14.7 31.2 1.4 4.5 1.9 5.2 3.8 4.8 1.2-.3 4.2-.7 6.7-1.1 11.2-1.5 14.2-6.3 14.8-23.7l.5-12.8-2.9.1c-1.6 0-5.3.7-8.2 1.5M416.5 326c-5.6 1.2-17.9 6.2-28.3 11.4l-8.7 4.5h9.2l9.3.1 1.5 3.5c6.5 15.7 18.8 20.8 44.5 18.4 14.7-1.3 13.6-.8 12.1-6.1-8-27.1-19.4-36.2-39.6-31.8m-93.7 24.7c-8.8 9.2-5.3 15.8 8.6 16.4l7.9.4 2.5-7.6c3.2-9.8 2.8-10.9-4-10.9-2.9 0-6.9-.3-8.8-.6-2.9-.5-3.9-.1-6.2 2.3m35.8 34.6c-9.1 5.1-9.2 5.6-1.5 13.2l6.5 6.6 11.1-6.7 11.1-6.7-10-4.8c-11.8-5.8-9.9-5.6-17.2-1.6M475 396.2c0 7.6 1.8 9.9 11.2 14.6 16 7.9 16.3 14.9 1 23-15 7.8-23.4 8.8-38.6 4.2-12.2-3.7-12.3-3.6-3.9 3.5 12 10.3 19 11.2 39 5.1l12.2-3.8 5.5 1.6c3 .9 6.2 1.9 7 2.2.7.3 3-.9 5-2.7l3.7-3.2-3-3.1c-4.2-4.3-5-7.2-4-13.5s.1-5.2 9.7-11.5c8.8-5.8 10.9-9.6 9.5-17l-.8-4-26.8-.1-26.7-.1zm94.2 21.8c-10.3 25.2-10.9 21.8 7.1 39l9.9 9.4 6.6-6.9c3.7-3.9 9-9.6 11.8-12.8 6-6.6 6.6-6.7 18.9-3.8 20.9 5.1 44.8 16.8 62.7 30.9l5.8 4.5-2.9 3.6c-2.8 3.5-8.1 14.2-8.1 16.3 0 .5 2.2 3.3 4.8 6.1 2.6 2.9 5.5 6.4 6.5 7.8 1.8 3 16.3 12.2 17.8 11.4.5-.4 2.4-3.8 4.2-7.8 5.2-11.1 4.8-11.1 15.8.6 23.5 25.2 37.4 44.6 44.9 62.7 24.1 58.4-17.6 115.9-100.4 138.5-28.4 7.7-41.3 8.9-101.6 9-61.7.1-70.2 1-90.4 9.6-31.2 13.3-55 51.9-45.5 74 15.5 36 219.5 26.8 302.4-13.6 140.7-68.4 76.4-291.2-109.7-379.9-17.6-8.4-45.5-18.4-51.9-18.6-.3 0-4.2 9-8.7 20M320 406.2c-6.1 3.1-6 4.4 1.1 12.1l6.1 6.7 4.6-2.5c2.6-1.4 5.8-3.5 7.2-4.5l2.5-2-6.2-6c-7-6.7-8.6-7.1-15.3-3.8m209 60.6c-5.8 1.9-6.9 5.6-3.9 13.6 3.5 9.6 7.4 11.1 14.3 5.4 7.1-5.8-1.7-21.9-10.4-19"/><path d="M636.5 478.8c-.6.5-4.5 2.2-8.8 3.8-8.8 3.3-9.7 4.6-6.9 10.1 1.1 2.1 2.5 6.5 3.2 9.8 1.8 8.7 8.7 18.5 13.1 18.5 12.4 0 23.9-7.9 20.7-14.3-1.4-2.9-2.9-7.4-3.3-10.1-1.2-8.5-14.1-21.2-18-17.8m-71.2 18.5c-9 6.1-1.8 24.7 9.6 24.7 9.2 0 18.5-12.4 13.2-17.6-13.5-13.4-13.6-13.4-22.8-7.1m-55.1 28c-7.3 7.3-8.3 11.3-3.4 13.7 1.5.8 5.2 2.9 8.3 4.7 7.5 4.4 7.4 4.4 14.7-3.6 8.5-9.5 8.4-10.6-1.8-16.5-10.1-5.9-10.3-5.8-17.8 1.7m113.2 21.2c-62.6 11.3-93.3 65-81.1 142l2.2 14 29-.4c16-.2 31.8-.6 35.1-1l6.2-.6-6.3-7.8c-39.6-49.4-31.3-111.3 19.1-141.3 12-7.2 11.6-7.8-4.2-4.9m81.9 1.2c-.3 1-2.2 5.6-4.1 10.2l-3.6 8.5 3.4 2.5c1.8 1.4 5.2 4.2 7.4 6.2 10.2 8.8 19.3 10.6 23.5 4.6 1.6-2.3 4.3-5.5 6-7.1 4.3-4.1 3.9-5.9-2.2-10.5-2.9-2.2-6.2-5.3-7.4-7-1.7-2.2-4.4-3.6-11.5-6-10.9-3.6-10.7-3.6-11.5-1.4M751 601c-1.1 1.1-2 2.7-2 3.5 0 .9-.8 3.2-1.9 5.3-2.3 4.6-2 5.6 3.7 11.4 5.5 5.8 5.2 5.7 10.9 1.1l4.5-3.7-.4-6.4c-.6-9.8-9.5-16.5-14.8-11.2"/></svg>
